<?xml version="1.0" standalone="no"?>
<!DOCTYPE svg PUBLIC "-//W3C//DTD SVG 20010904//EN"
 "http://www.w3.org/TR/2001/REC-SVG-20010904/DTD/svg10.dtd">
<svg version="1.0" xmlns="http://www.w3.org/2000/svg"
 width="512.000000pt" height="512.000000pt" viewBox="0 0 512.000000 512.000000"
 preserveAspectRatio="xMidYMid meet">
<metadata>
Created by potrace 1.14, written by Peter Selinger 2001-2017
</metadata>
<g transform="translate(0.000000,512.000000) scale(0.100000,-0.100000)"
fill="#000000" stroke="none">
<path d="M2589 4819 c-2 -6 -6 -77 -13 -250 -4 -85 -9 -166 -11 -180 -3 -13
-8 -37 -10 -53 -7 -37 -32 -96 -49 -116 -7 -8 -16 -27 -20 -42 -4 -20 -13 -27
-34 -30 -27 -3 -27 -4 -27 -75 0 -69 -1 -73 -22 -73 -13 0 -23 -3 -24 -7 0 -5
-1 -93 -2 -196 -2 -184 -2 -188 18 -183 11 3 26 6 33 6 7 0 12 13 12 29 0 16
6 31 13 34 20 6 48 -4 45 -19 -4 -16 4 -18 43 -10 17 3 28 10 25 15 -7 10 23
20 42 14 6 -3 12 -10 12 -17 0 -7 16 -17 35 -23 33 -11 35 -10 35 12 0 25 15
34 43 27 20 -5 24 -52 5 -53 -12 0 47 -27 65 -28 4 -1 7 89 7 198 0 199 0 200
-22 203 -21 3 -23 8 -23 73 l0 70 -33 3 c-24 3 -32 8 -32 23 0 11 -11 39 -24
62 -49 84 -63 188 -70 499 -1 42 -5 80 -9 84 -4 4 -8 5 -8 3z m-94 -909 c0
-20 -5 -25 -25 -25 -20 0 -26 6 -28 28 -3 26 -1 28 25 25 22 -2 28 -8 28 -28z
m128 11 c7 -29 -7 -45 -37 -37 -24 6 -27 17 -17 54 1 1 12 2 25 2 15 0 26 -7
29 -19z m125 -8 c-2 -22 -8 -28 -28 -28 -20 0 -26 6 -28 28 -3 24 0 27 28 27
28 0 31 -3 28 -27z m-253 -113 c3 -6 3 -19 0 -31 -10 -31 -49 -21 -53 14 -3
23 0 27 22 27 14 0 28 -5 31 -10z m128 -2 c9 -27 -5 -47 -31 -45 -24 2 -31 17
-23 52 2 11 50 4 54 -7z m127 -12 c0 -16 -7 -27 -20 -31 -27 -9 -40 1 -40 31
0 20 5 24 30 24 25 0 30 -4 30 -24z"/>
<path d="M1989 4519 c-3 -59 -7 -134 -13 -269 -7 -157 -23 -240 -62 -309 -13
-24 -24 -52 -24 -62 0 -12 -8 -19 -20 -20 -11 -1 -26 -2 -32 -3 -9 -1 -13 -22
-13 -66 -1 -66 -9 -95 -26 -85 -5 4 -12 0 -14 -7 -5 -11 -13 -258 -9 -258 1 0
15 5 33 11 25 9 31 16 31 40 0 26 4 29 30 29 16 0 29 -3 29 -7 -6 -34 2 -42
29 -32 15 5 32 17 39 26 8 10 21 14 39 10 30 -5 194 36 203 52 5 7 6 58 2 130
-1 7 -7 11 -16 8 -22 -9 -30 12 -30 83 0 58 -2 65 -20 65 -26 1 -46 14 -43 28
2 7 -7 28 -19 47 -49 80 -60 140 -69 356 -8 224 -10 243 -17 251 -4 3 -8 -5
-8 -18z m-94 -899 c0 -20 -5 -25 -25 -25 -20 0 -26 6 -28 28 -3 26 -1 28 25
25 22 -2 28 -8 28 -28z m130 0 c0 -19 -6 -26 -24 -28 -27 -4 -41 12 -33 40 3
14 12 18 31 16 20 -2 26 -9 26 -28z m125 0 c0 -25 -4 -30 -24 -30 -16 0 -27 7
-31 20 -9 27 1 40 31 40 20 0 24 -5 24 -30z"/>
<path d="M3188 4534 c-3 -21 -6 -69 -12 -234 -4 -96 -9 -188 -12 -205 -8 -49
-36 -128 -55 -156 -10 -15 -20 -36 -22 -48 -4 -27 -13 -35 -40 -36 -20 0 -22
-5 -24 -68 -2 -75 -3 -77 -29 -81 -16 -2 -18 -13 -19 -75 -1 -80 2 -83 75 -96
16 -3 41 -10 56 -15 15 -6 47 -8 71 -4 36 5 43 4 43 -10 0 -15 36 -36 61 -36
5 0 9 12 9 26 0 22 4 25 28 22 28 -3 38 -30 20 -54 -7 -10 30 -24 64 -24 5 0
7 58 6 133 -3 124 -4 132 -23 132 -18 0 -20 7 -21 66 -1 78 -7 89 -40 89 -17
0 -24 5 -24 20 0 11 -11 37 -25 58 -34 53 -55 140 -60 262 -3 58 -7 156 -10
219 -5 100 -11 146 -17 115z m-93 -914 c0 -19 -6 -26 -24 -28 -27 -4 -41 12
-33 40 3 14 12 18 31 16 20 -2 26 -9 26 -28z m125 -1 c0 -27 -3 -30 -27 -27
-20 2 -28 9 -29 23 -1 29 4 35 32 35 20 0 24 -5 24 -31z m125 1 c0 -20 -6 -26
-27 -28 -25 -3 -28 0 -28 28 0 28 3 31 28 28 21 -2 27 -8 27 -28z"/>
<path d="M4851 3651 c-1 -16 -72 -85 -191 -185 -325 -274 -688 -475 -1092
-605 -53 -17 -99 -31 -102 -31 -3 0 -6 21 -8 48 -3 41 -6 47 -25 46 -23 -1
-23 0 -23 152 0 149 0 152 -22 158 -34 9 -38 8 -38 -9 0 -10 -10 -15 -30 -15
-25 0 -30 4 -30 25 0 20 -7 26 -37 34 -21 6 -91 26 -156 45 -64 18 -119 31
-120 27 -2 -3 -3 -97 -2 -208 0 -182 -1 -203 -16 -203 -29 0 -36 -23 -34 -112
1 -54 -3 -89 -10 -91 -7 -3 -10 36 -9 124 2 127 1 129 -21 135 -22 5 -23 10
-23 109 0 112 -3 125 -33 125 -17 0 -19 8 -19 85 0 83 -1 86 -26 95 -33 13
-31 13 -37 -11 -8 -31 -51 -22 -55 11 -2 21 -12 28 -55 40 -55 16 -136 8 -138
-14 -1 -6 -2 -20 -3 -31 -2 -29 -56 -35 -56 -6 0 16 -6 21 -25 21 -33 0 -41
-22 -39 -112 2 -70 0 -78 -16 -78 -29 0 -33 -15 -32 -121 1 -96 0 -100 -22
-110 -23 -11 -24 -15 -24 -128 0 -141 0 -141 -11 -141 -5 0 -9 37 -9 83 1 129
1 127 -26 127 l-23 0 -1 188 c0 272 5 243 -39 226 -21 -7 -91 -28 -155 -45
-118 -31 -124 -36 -119 -76 1 -8 -10 -13 -29 -13 -23 0 -30 4 -30 20 0 17 -4
19 -27 14 -16 -4 -29 -8 -31 -9 -1 -1 -3 -70 -4 -153 -1 -146 -1 -151 -22
-154 -18 -3 -21 -11 -24 -56 l-3 -53 -32 6 c-51 10 -321 103 -410 141 -205 88
-457 233 -640 369 -161 121 -187 142 -280 230 -48 46 -87 81 -88 77 0 -4 -3
-20 -5 -37 -2 -16 -6 -52 -9 -80 -2 -27 -5 -54 -6 -60 0 -5 2 -44 6 -85 4 -41
8 -91 9 -110 1 -20 5 -41 9 -47 4 -6 2 -13 -4 -15 -8 -3 -7 -12 6 -31 12 -19
13 -27 5 -27 -10 0 -10 -3 0 -15 10 -12 10 -15 -1 -15 -12 0 -12 -2 -1 -9 12
-7 21 -50 25 -108 0 -7 5 -13 11 -13 6 0 4 -5 -4 -10 -11 -7 -11 -10 -2 -10 7
0 10 -4 7 -10 -3 -5 -2 -10 3 -10 9 0 10 -7 13 -55 1 -14 6 -22 12 -18 6 4 7
1 2 -7 -4 -7 -2 -16 6 -20 7 -5 14 -16 15 -24 1 -9 -2 -14 -6 -11 -5 3 -12 0
-16 -7 -4 -7 -4 -10 1 -6 4 4 17 1 27 -7 11 -7 28 -11 37 -8 13 4 14 3 1 -5
-8 -6 -18 -8 -22 -6 -4 3 -8 0 -8 -6 0 -6 8 -10 18 -8 11 2 16 -3 14 -15 -2
-9 1 -17 5 -16 19 3 34 -2 29 -10 -7 -11 22 -23 35 -15 5 3 9 2 8 -3 -4 -20 2
-33 15 -33 8 0 17 -7 20 -16 3 -8 9 -13 14 -11 4 3 16 -1 27 -9 10 -8 14 -14
9 -14 -6 0 -15 5 -22 12 -9 9 -12 9 -12 0 0 -7 14 -15 30 -19 23 -4 28 -9 20
-18 -9 -11 -6 -12 11 -8 15 4 20 3 15 -5 -4 -7 -1 -12 8 -12 8 0 17 6 20 13 3
6 3 2 0 -10 -4 -16 1 -23 18 -28 13 -4 31 -14 40 -23 14 -11 21 -12 32 -3 11
9 14 8 12 -6 -1 -13 6 -18 26 -17 19 0 24 -3 18 -11 -7 -8 -5 -12 5 -13 8 -1
22 -3 30 -4 8 -1 15 -5 15 -10 0 -4 3 -7 8 -7 21 4 32 -2 26 -13 -5 -9 -2 -9
9 1 9 7 17 9 17 3 0 -5 7 -13 16 -16 8 -3 13 -2 9 3 -3 5 3 8 12 6 10 -2 22
-4 26 -4 5 -1 5 -5 2 -11 -8 -12 5 -13 24 -1 9 6 22 4 35 -4 12 -7 29 -11 39
-10 11 2 16 1 12 -3 -11 -11 -55 -9 -55 2 0 7 -3 7 -8 -1 -8 -12 -108 -11
-192 2 -63 9 -202 47 -247 66 -25 10 -46 19 -48 19 -3 0 5 -17 17 -37 l22 -38
-24 20 c-18 14 -21 15 -11 3 7 -9 10 -21 7 -26 -3 -5 4 -16 15 -25 11 -10 17
-23 13 -30 -6 -8 -3 -8 8 1 14 11 16 10 11 -6 -2 -11 1 -23 8 -27 8 -6 10 -4
4 5 -6 9 -4 11 4 6 7 -5 10 -10 7 -13 -10 -10 15 -44 27 -36 7 4 5 -2 -3 -12
-8 -10 -10 -16 -5 -13 6 3 16 0 23 -8 10 -11 10 -14 0 -15 -7 -1 -2 -4 12 -8
17 -5 25 -14 24 -29 -1 -12 3 -19 7 -16 5 3 9 0 9 -6 0 -6 4 -9 9 -6 5 3 15
-2 22 -11 10 -12 10 -14 2 -9 -8 4 -13 1 -13 -8 0 -9 3 -15 8 -15 19 3 33 -2
27 -11 -3 -6 1 -10 11 -10 14 0 15 -2 3 -17 -10 -11 -10 -14 -1 -9 7 4 12 2
12 -5 0 -9 3 -9 14 0 12 10 13 8 9 -8 -4 -15 -1 -21 11 -21 9 0 16 -6 16 -13
0 -8 9 -22 21 -33 16 -14 22 -15 28 -5 6 9 11 10 15 2 4 -6 3 -11 -1 -11 -5 0
-10 -10 -10 -22 -1 -13 1 -18 5 -11 5 8 14 7 32 -3 l25 -15 -25 5 c-24 5 -23
5 3 -7 15 -7 24 -16 21 -20 -4 -4 2 -7 14 -7 11 0 24 -5 28 -12 5 -7 3 -8 -7
-3 -11 7 -12 6 -2 -7 7 -8 9 -18 5 -22 -4 -4 -2 -7 3 -6 26 6 46 -1 39 -12 -5
-8 0 -7 11 2 11 9 16 10 11 2 -4 -7 -1 -15 8 -18 9 -3 13 -10 10 -15 -3 -5 0
-9 5 -9 14 0 14 13 1 26 -7 7 -6 11 5 11 8 0 13 -3 10 -5 -3 -3 3 -11 13 -19
9 -8 11 -12 5 -8 -19 9 -16 2 8 -18 20 -18 21 -18 14 2 -7 22 10 38 21 20 5
-8 3 -9 -6 -4 -10 6 -12 4 -7 -9 4 -10 7 -19 7 -22 0 -2 7 -1 15 2 8 4 12 11
8 17 -3 6 -1 7 6 3 9 -6 9 -11 0 -22 -9 -11 -7 -14 15 -14 14 0 26 -4 26 -10
0 -5 5 -10 11 -10 5 0 7 4 4 10 -3 5 -3 10 0 10 9 0 35 -27 30 -32 -2 -2 4 -4
15 -4 10 0 16 4 14 8 -3 4 -1 8 5 8 5 0 12 -6 14 -12 4 -9 6 -9 6 1 1 11 5 10
16 -5 13 -17 14 -17 15 -2 0 9 4 20 10 23 6 4 7 -1 3 -11 -5 -13 -3 -16 10
-11 10 4 14 2 11 -6 -3 -8 4 -13 15 -13 16 0 18 3 8 15 -10 12 -9 13 11 2 12
-6 22 -9 22 -5 0 3 7 1 15 -6 18 -15 20 0 2 20 -6 7 3 3 22 -10 19 -13 31 -19
27 -12 -5 8 9 11 48 9 30 -1 54 0 54 3 -1 18 4 21 19 9 11 -10 14 -10 9 -1 -7
12 4 16 31 13 7 -1 13 4 13 10 0 7 3 9 6 6 4 -4 1 -14 -6 -22 -11 -13 -15 -13
-21 -3 -7 10 -9 9 -9 -3 0 -17 -121 -79 -160 -82 -27 -2 -26 -15 3 -26 13 -5
29 -17 37 -27 14 -18 14 -18 -3 -5 -9 8 -20 11 -24 7 -4 -3 2 -13 13 -22 18
-15 18 -15 -3 -5 -12 6 -24 16 -26 23 -4 9 -6 10 -6 1 -1 -14 39 -44 50 -37 4
2 10 0 14 -6 3 -5 22 -10 41 -10 31 0 39 -8 35 -33 -1 -5 3 -6 9 -2 6 3 8 10
5 15 -3 5 0 12 6 16 8 4 9 3 5 -4 -4 -7 -2 -12 4 -12 6 0 8 -6 4 -12 -4 -7 -4
-10 0 -6 5 4 19 3 33 -3 18 -7 22 -6 17 4 -4 6 2 4 13 -5 11 -10 28 -18 38
-18 10 0 27 -8 37 -17 13 -12 18 -13 16 -4 -2 7 3 16 11 19 9 3 11 0 6 -8 -6
-9 -4 -12 7 -8 8 4 21 2 29 -2 8 -5 19 -4 26 2 11 8 12 7 6 -8 -6 -17 -5 -17
10 -5 12 9 17 10 17 2 0 -7 5 -9 10 -6 6 4 17 1 25 -5 18 -15 20 1 3 20 -11
12 -10 12 3 2 9 -6 20 -8 24 -4 5 4 5 1 1 -5 -4 -7 -2 -13 4 -13 6 0 8 -4 5
-10 -3 -5 0 -7 8 -4 8 3 21 -2 30 -10 11 -12 16 -13 20 -3 3 9 8 8 22 -3 11
-9 16 -10 11 -2 -4 6 -2 12 3 12 10 0 15 -14 12 -33 -1 -5 3 -6 9 -2 6 3 8 10
6 14 -3 4 5 7 17 8 12 0 16 -1 10 -4 -7 -3 -13 -11 -13 -19 0 -11 5 -12 18 -5
12 6 23 6 33 -1 11 -8 10 -9 -4 -4 -11 3 -16 2 -12 -4 3 -6 15 -10 26 -10 10
0 19 -4 19 -9 0 -5 13 -14 30 -21 16 -7 32 -20 35 -31 4 -11 12 -16 21 -12 8
3 14 -1 14 -11 0 -14 24 -22 52 -17 5 0 7 -2 7 -7 -1 -4 -1 -18 0 -32 1 -20 3
-22 11 -10 8 12 10 11 10 -6 0 -12 8 -28 18 -35 15 -13 16 -12 4 3 -10 12 -10
18 -1 24 7 4 9 3 5 -4 -3 -6 -1 -14 5 -17 5 -4 8 -14 5 -22 -3 -8 -2 -11 3 -8
5 3 12 1 16 -5 3 -5 0 -10 -7 -10 -10 0 -9 -3 2 -9 8 -6 18 -7 22 -5 13 8 9
-11 -4 -25 -10 -11 -10 -13 0 -7 6 4 12 2 12 -4 0 -12 25 -41 31 -37 3 1 1 -2
-3 -7 -4 -5 3 -17 15 -27 19 -16 20 -20 7 -29 -12 -7 -12 -10 -1 -10 8 0 11
-6 7 -16 -3 -8 -2 -13 3 -10 5 3 12 -1 15 -10 3 -8 2 -12 -4 -9 -6 3 -7 -1 -4
-9 3 -9 11 -16 18 -16 6 0 4 -4 -4 -10 -12 -8 -12 -10 4 -16 12 -4 14 -9 6
-14 -7 -5 -6 -11 6 -21 10 -8 15 -9 11 -3 -7 13 14 64 27 64 5 0 2 8 -5 17
-12 15 -12 16 5 10 16 -6 17 -5 6 8 -8 10 -9 15 -1 15 6 0 11 5 11 11 0 5 -6
7 -12 4 -7 -4 -2 4 13 17 16 15 25 33 24 50 -1 29 9 37 19 16 3 -7 3 -1 1 14
-3 21 1 28 13 29 11 0 12 2 4 6 -8 3 1 18 28 44 38 37 44 53 10 26 -9 -6 -5
-2 8 11 13 12 28 19 34 16 5 -4 4 4 -3 17 -11 21 -11 23 3 11 13 -10 17 -10
22 4 3 9 4 19 2 23 -3 4 5 8 16 8 24 2 40 22 30 38 -3 5 1 4 10 -3 13 -10 18
-10 24 -1 5 8 3 9 -6 4 -8 -5 -11 -3 -8 6 3 8 10 15 16 15 7 1 17 2 23 3 5 0
8 5 5 10 -6 10 24 25 32 16 3 -3 0 -5 -6 -5 -7 0 -12 -5 -12 -12 0 -6 9 -3 20
7 11 10 20 24 20 31 0 7 4 16 10 19 5 3 7 0 4 -8 -3 -8 1 -14 10 -14 8 0 13 4
10 9 -5 7 10 12 20 6 3 -2 17 8 32 22 15 14 25 20 21 15 -3 -6 4 -12 16 -12
17 -2 19 0 7 7 -14 9 -7 14 14 11 4 -1 14 4 22 10 11 9 14 8 14 -2 0 -12 2
-12 9 0 6 8 19 12 35 9 15 -3 30 0 34 6 10 15 48 44 39 30 -4 -7 -1 -17 7 -23
10 -9 15 -8 20 4 5 13 10 14 27 5 19 -11 20 -10 9 12 -10 19 -10 21 1 11 18
-18 39 -16 39 2 0 8 5 15 11 15 5 0 8 -4 5 -9 -3 -5 3 -11 15 -14 17 -5 18 -3
7 10 -12 15 -11 15 10 4 18 -10 23 -9 28 3 3 8 12 17 20 20 9 3 12 1 9 -4 -10
-17 7 -11 22 8 14 16 14 16 9 -3 -6 -19 -6 -19 9 -1 9 12 21 17 35 13 13 -3
23 0 27 9 4 11 8 12 19 3 11 -9 13 -9 9 2 -3 9 1 15 12 17 10 1 27 4 38 6 11
2 24 5 28 5 10 1 -18 31 -29 31 -3 0 0 -8 7 -17 13 -16 12 -17 -3 -4 -24 18
-23 26 8 39 31 15 25 28 -18 36 -45 9 -170 78 -175 96 -3 10 -1 9 7 -2 6 -10
15 -18 20 -18 5 0 7 8 4 18 -5 16 -5 16 6 -1 6 -9 15 -15 21 -12 5 4 9 1 9 -6
0 -8 5 -7 17 2 9 8 14 9 11 4 -4 -6 3 -17 15 -25 20 -12 21 -12 9 2 -11 14 -9
15 22 8 19 -4 38 -5 42 -1 4 3 4 -2 1 -12 -4 -11 -3 -16 3 -12 6 3 10 12 10
20 0 8 4 16 9 19 4 3 7 -6 5 -19 -1 -14 2 -23 7 -19 5 3 6 11 2 17 -4 8 -1 7
9 -1 12 -10 18 -10 23 -1 6 8 10 7 16 -2 7 -12 9 -12 9 0 0 10 3 11 14 2 11
-9 16 -9 22 0 4 8 3 9 -4 5 -18 -11 -14 0 5 15 10 8 14 9 10 2 -4 -6 -3 -14 3
-18 5 -3 10 -2 10 3 0 6 7 13 16 16 8 3 12 2 9 -4 -3 -6 5 -9 19 -8 13 1 22 6
20 10 -3 5 -10 5 -16 2 -7 -4 -8 -2 -4 5 4 6 12 9 17 6 18 -12 49 -14 54 -4 4
5 11 7 16 4 5 -4 9 1 9 9 0 8 5 18 12 22 7 4 8 3 4 -4 -4 -7 -1 -12 9 -12 9 0
13 5 10 10 -3 6 -1 10 4 10 6 0 11 -6 11 -12 0 -7 5 -5 11 5 6 10 15 14 22 10
7 -4 5 2 -3 12 -10 12 -11 16 -2 11 19 -12 62 2 56 17 -5 13 6 17 50 18 17 0
17 1 1 13 -14 10 -15 15 -5 21 9 6 11 4 5 -4 -5 -9 -2 -12 10 -9 10 1 20 9 23
17 3 9 0 11 -9 6 -8 -5 -11 -4 -6 1 9 9 13 10 43 13 11 1 14 7 9 24 -4 15 -3
18 3 8 8 -10 14 -11 28 -1 18 11 18 11 0 6 -15 -5 -17 -4 -8 7 7 8 8 18 4 22
-4 5 0 4 8 -1 24 -14 39 -13 33 3 -4 9 2 16 16 20 20 5 20 6 4 19 -17 12 -16
13 5 9 14 -2 22 1 22 10 0 7 7 16 16 19 8 3 12 11 8 17 -4 7 2 7 17 -1 19 -10
22 -10 12 0 -9 10 -9 16 2 26 7 8 20 14 27 14 10 0 9 3 -2 11 -12 9 -11 10 7
6 16 -4 20 -1 16 11 -5 11 -3 13 8 7 12 -8 12 -6 0 8 -7 9 -10 18 -5 18 5 1
16 2 24 3 8 0 15 6 15 12 0 6 8 18 18 28 20 20 23 32 4 20 -7 -5 -4 -1 7 9 17
16 18 20 5 28 -10 8 -8 9 9 4 16 -5 22 -2 22 10 0 9 5 13 10 10 6 -3 10 -2 10
4 0 5 -6 12 -12 14 -8 3 -6 6 4 6 12 1 15 6 11 18 -4 11 -3 14 5 9 7 -4 12 -2
12 4 0 6 5 8 10 5 6 -4 10 7 10 27 0 25 3 29 10 18 8 -12 10 -11 10 5 0 12 6
27 13 35 6 8 1 6 -12 -5 l-25 -20 22 36 c12 20 22 39 22 42 0 3 -17 -3 -39
-14 -41 -20 -167 -57 -216 -65 -16 -2 -46 -6 -65 -9 -114 -17 -140 -17 -140
-2 0 9 -6 17 -12 20 -7 2 8 4 33 3 34 -1 45 2 42 11 -3 7 0 13 6 13 6 0 11 -5
11 -11 0 -5 5 -7 10 -4 6 4 7 12 3 18 -4 8 -1 7 9 -1 10 -8 18 -9 22 -3 4 6
14 7 23 4 9 -4 14 -2 10 3 -3 6 3 16 15 23 16 10 19 10 13 -1 -5 -7 2 -2 15
10 13 15 30 22 41 19 21 -6 24 3 9 21 -7 9 -7 9 2 2 22 -18 47 -12 43 10 -3
16 -1 19 12 11 20 -11 59 21 48 39 -6 9 -2 9 13 1 15 -8 23 -7 32 4 6 8 9 19
6 24 -4 5 -2 12 3 15 5 4 13 1 17 -5 5 -8 3 -9 -6 -4 -9 5 -11 4 -6 -4 4 -6
12 -9 17 -5 5 3 6 10 3 16 -5 8 -1 9 11 4 15 -5 16 -4 5 9 -11 13 -10 14 4 9
10 -4 18 0 22 10 3 9 10 13 15 10 5 -3 9 2 9 11 0 9 5 13 11 10 6 -4 9 0 7 11
-2 14 2 18 16 16 18 -3 18 -2 5 14 -13 16 -12 16 8 6 19 -10 20 -9 16 8 -3 12
0 20 6 20 7 0 9 -5 5 -12 -5 -9 -3 -9 9 1 9 7 14 18 10 24 -4 6 0 8 11 4 14
-6 15 -4 5 16 -11 19 -10 20 2 10 12 -10 15 -8 16 8 1 12 -3 17 -9 13 -7 -5
-8 -2 -4 5 5 7 15 10 23 6 13 -4 13 -3 4 9 -9 11 -8 15 5 20 13 5 14 9 4 21
-7 8 -8 15 -2 15 5 0 10 11 11 25 4 57 6 65 13 65 4 0 4 7 1 17 -4 10 -2 14 4
10 7 -5 9 0 6 12 -3 10 0 22 6 25 6 4 11 13 11 19 0 7 -4 6 -10 -3 -5 -8 -10
-10 -10 -4 0 6 3 14 8 18 4 4 8 20 8 34 3 42 3 44 17 36 9 -6 9 -5 0 7 -10 12
-10 18 -1 27 9 9 9 12 0 12 -9 0 -10 5 -4 18 5 9 8 27 6 40 -3 17 0 21 8 16 9
-5 9 -2 -1 9 -7 9 -9 17 -5 17 5 0 9 21 9 46 -1 25 3 48 8 51 4 2 3 11 -4 19
-9 11 -9 17 1 29 7 8 8 15 3 15 -5 0 -9 19 -8 43 1 39 -21 169 -24 138z
m-2229 -226 c3 -3 3 -17 0 -31 -4 -20 -10 -24 -31 -22 -23 3 -30 18 -22 53 1
7 46 6 53 0z m-125 -153 c1 -12 -2 -23 -7 -23 -36 -5 -45 -2 -48 14 -2 10 -1
25 2 32 8 22 49 3 53 -23z m124 10 c5 -14 3 -25 -8 -34 -19 -16 -17 -16 -36 0
-16 13 -17 28 -4 49 11 17 39 9 48 -15z m117 19 c8 -4 12 -19 10 -32 -3 -22
-9 -25 -48 -20 -14 2 -12 48 3 54 18 8 21 8 35 -2z m-713 -59 c1 -16 -5 -26
-19 -32 -29 -10 -43 -3 -42 23 2 40 58 48 61 9z m125 -3 c0 -27 -26 -44 -48
-30 -24 14 -1 60 28 58 15 -1 20 -9 20 -28z m946 11 c1 -29 -15 -48 -36 -43
-26 7 -29 13 -20 39 10 25 55 28 56 4z m122 -9 c4 -27 -12 -41 -38 -34 -15 4
-18 20 -11 54 0 4 11 6 24 5 15 -1 23 -8 25 -25z m-1323 -131 c0 -18 -6 -26
-23 -28 -24 -4 -38 18 -28 44 3 9 15 14 28 12 17 -2 23 -10 23 -28z m130 0 c0
-20 -6 -26 -28 -28 -24 -3 -27 0 -27 28 0 28 3 31 28 28 21 -2 27 -8 27 -28z
m125 -1 c0 -27 -3 -30 -27 -27 -17 2 -27 10 -29 22 -4 28 3 36 32 36 20 0 24
-5 24 -31z m943 19 c8 -25 -5 -48 -28 -48 -13 0 -25 7 -27 18 -7 27 2 42 27
42 13 0 25 -6 28 -12z m127 -18 c0 -26 -4 -30 -28 -30 -24 0 -28 4 -26 28 2
34 0 32 29 32 21 0 25 -5 25 -30z m125 0 c0 -20 -6 -26 -27 -28 -25 -3 -28 0
-28 28 0 28 3 31 28 28 21 -2 27 -8 27 -28z m-1449 -128 c-1 -22 -6 -27 -26
-27 -16 0 -26 6 -28 18 -6 31 5 45 31 40 18 -4 24 -11 23 -31z m130 8 c0 -20
-15 -40 -33 -40 -14 0 -34 39 -26 53 8 14 58 3 59 -13z m124 -4 c0 -29 -13
-40 -39 -31 -11 3 -18 15 -18 30 0 21 4 25 28 25 24 0 29 -4 29 -24z m944 2
c-1 -10 -2 -22 -3 -28 -2 -17 -44 -4 -52 16 -9 27 -1 36 29 32 19 -2 27 -9 26
-20z m124 -5 c-2 -21 -9 -28 -25 -29 -13 -1 -23 1 -24 5 0 3 -2 16 -5 29 -3
19 0 22 27 22 27 0 30 -3 27 -27z m130 0 c-3 -27 -8 -29 -48 -24 -5 0 -10 12
-10 26 0 21 5 25 31 25 27 0 30 -3 27 -27z m1202 -379 c0 -8 -19 -13 -24 -6
-3 5 1 9 9 9 8 0 15 -2 15 -3z m-3846 -42 c2 -4 -5 -9 -17 -9 -17 -2 -19 0 -7
7 18 12 18 12 24 2z m3383 -164 c-3 -8 -6 -5 -6 6 -1 11 2 17 5 13 3 -3 4 -12
1 -19z m53 2 c0 -5 -4 -10 -10 -10 -5 0 -10 5 -10 10 0 6 5 10 10 10 6 0 10
-4 10 -10z m-3265 -388 c-3 -3 -11 0 -18 7 -9 10 -8 11 6 5 10 -3 15 -9 12
-12z m149 -127 c3 -8 1 -15 -4 -15 -6 0 -10 7 -10 15 0 8 2 15 4 15 2 0 6 -7
10 -15z m2520 -331 c3 -8 2 -12 -4 -9 -6 3 -10 10 -10 16 0 14 7 11 14 -7z
m-1784 -28 c0 -2 -8 -10 -17 -17 -16 -13 -17 -12 -4 4 13 16 21 21 21 13z m34
-32 c3 -8 2 -12 -4 -9 -6 3 -10 10 -10 16 0 14 7 11 14 -7z m235 -47 c0 -9 -2
-8 -6 1 -2 6 -10 9 -15 6 -7 -4 -8 -2 -4 5 9 13 26 5 25 -12z m1078 8 c0 -8
-4 -12 -9 -9 -5 3 -6 10 -3 15 9 13 12 11 12 -6z m-81 -30 c-1 -8 -5 -17 -8
-21 -5 -4 -4 16 1 34 3 9 9 -1 7 -13z m-391 -405 c3 -5 1 -10 -4 -10 -6 0 -11
5 -11 10 0 6 2 10 4 10 3 0 8 -4 11 -10z"/>
<path d="M4365 2490 c-3 -6 1 -7 9 -4 18 7 21 14 7 14 -6 0 -13 -4 -16 -10z"/>
<path d="M2342 1246 c7 -8 15 -12 17 -11 5 6 -10 25 -20 25 -5 0 -4 -6 3 -14z"/>
<path d="M3120 940 c-39 -39 -11 -110 43 -110 30 0 67 35 67 64 0 30 -35 66
-65 66 -14 0 -34 -9 -45 -20z"/>
<path d="M2564 752 c-27 -3 -33 -8 -36 -33 -3 -16 -1 -29 3 -29 5 0 5 -9 1
-20 -4 -11 -5 -47 -2 -80 3 -33 2 -60 -2 -60 -4 0 -6 -6 -3 -12 2 -7 6 -35 9
-62 3 -27 11 -53 18 -58 7 -4 9 -8 4 -8 -5 0 -1 -9 10 -21 10 -11 26 -18 36
-16 10 3 16 0 15 -7 -1 -8 64 -11 241 -12 221 -2 243 0 238 15 -5 14 -5 14 6
0 15 -18 106 -23 126 -6 10 8 16 8 21 -1 4 -7 21 -12 37 -10 16 1 36 -2 43 -7
10 -6 12 -4 6 5 -6 10 -4 12 11 6 10 -4 15 -4 12 0 -4 4 -3 14 2 24 5 10 6 20
3 24 -11 11 -12 36 -2 36 6 0 7 6 2 13 -13 20 -11 31 5 47 19 17 21 17 33 -2
5 -7 9 -8 9 -2 0 14 30 14 30 0 0 -6 4 -5 9 2 11 17 21 17 32 0 5 -7 9 -8 9
-2 0 13 30 15 45 3 6 -4 17 -4 25 1 9 5 19 5 26 -1 8 -7 14 -6 19 1 5 8 11 8
21 -1 9 -7 14 -8 14 -1 0 11 25 10 36 -1 4 -4 14 -1 22 6 18 14 22 13 33 -5 5
-7 9 -8 9 -2 0 6 11 10 24 9 13 -2 29 1 37 6 11 7 11 9 1 9 -10 0 -10 5 -2 20
8 14 8 20 0 20 -7 0 -8 6 0 19 21 40 -11 46 -221 44 -210 -2 -231 0 -222 22 3
10 10 12 21 6 11 -6 20 -4 30 7 7 10 11 12 7 5 -4 -9 12 -12 60 -12 47 1 63 4
58 12 -5 9 -3 9 8 0 20 -16 122 -16 112 0 -5 9 -3 9 8 0 8 -6 37 -11 64 -11
27 0 56 5 64 11 10 8 13 8 8 1 -5 -8 26 -12 109 -12 64 0 117 -2 119 -4 8 -8
9 -188 1 -188 -5 0 -4 -6 3 -13 7 -10 7 -17 0 -24 -8 -8 -8 -13 0 -17 8 -5 8
-13 0 -28 -7 -13 -7 -18 -1 -14 6 3 13 2 17 -3 3 -6 28 -10 56 -9 28 0 48 2
45 6 -3 3 -1 11 5 19 9 10 8 13 -2 13 -9 0 -10 3 -4 8 6 4 10 60 10 131 l0
124 113 -1 c109 0 113 0 106 20 -4 13 -2 18 4 14 7 -4 8 3 2 24 -5 19 -5 32 2
36 28 18 -41 23 -288 24 -148 0 -273 0 -279 -1 -5 -1 -14 0 -20 1 -5 1 -108 1
-228 1 -194 0 -223 -2 -256 -19 -20 -10 -40 -28 -46 -40 -5 -12 -13 -22 -18
-22 -4 0 -5 -4 -2 -10 3 -5 2 -10 -4 -10 -5 0 -9 18 -7 39 2 22 0 45 -5 52 -9
16 -109 15 -118 0 -4 -6 -7 -73 -6 -150 l1 -139 -227 -1 -227 -1 2 35 c1 19
-3 37 -9 39 -6 3 -6 5 0 5 8 1 10 75 6 202 -1 18 -35 26 -87 21z m681 -371 c3
-5 2 -12 -3 -15 -5 -3 -9 1 -9 9 0 17 3 19 12 6z"/>
<path d="M1005 739 c-28 -14 -50 -50 -144 -231 l-81 -158 55 0 55 0 28 50 27
50 100 0 100 0 28 -50 28 -50 54 0 54 0 -12 28 c-7 15 -48 96 -92 181 -95 183
-130 214 -200 180z m65 -141 c11 -18 20 -36 20 -40 0 -5 -20 -8 -45 -8 l-45 0
20 40 c11 22 23 40 25 40 3 0 14 -15 25 -32z"/>
<path d="M1328 743 c-3 -7 -2 -358 1 -385 1 -5 24 -8 51 -8 56 0 52 -7 52 98
l0 52 184 1 c101 1 187 2 192 3 27 8 62 32 67 47 3 9 12 22 19 28 10 8 12 -13
12 -107 l-1 -117 53 -3 52 -3 1 43 c1 24 0 57 -1 75 l-1 32 201 3 202 3 34 37
c58 64 46 143 -28 188 -28 17 -55 19 -270 20 -186 0 -238 -2 -239 -12 -1 -7
-1 -25 0 -40 1 -35 -6 -35 -31 -3 -41 52 -59 55 -312 55 -129 0 -236 -3 -238
-7z m472 -118 l0 -25 -185 0 -185 0 0 25 0 25 185 0 185 0 0 -25z m580 0 l0
-25 -185 0 -185 0 0 25 0 25 185 0 185 0 0 -25z"/>
<path d="M4446 552 c-2 -1 -42 -3 -90 -3 -51 0 -84 -4 -81 -10 4 -5 2 -9 -3
-9 -6 0 -9 -29 -7 -69 l4 -69 -34 8 c-31 7 -35 5 -44 -21 -7 -20 -6 -31 3 -38
16 -14 66 -10 66 4 0 6 3 6 8 -1 4 -6 37 -11 73 -11 l67 -1 6 40 c5 32 9 38
20 29 7 -6 16 -8 20 -4 11 11 70 9 78 -2 5 -6 8 -5 8 4 0 11 3 11 15 1 8 -7
15 -25 15 -41 0 -26 3 -29 33 -26 24 2 32 7 32 22 -1 11 4 23 10 27 6 5 6 8
-2 8 -6 0 -10 8 -8 18 1 9 -2 25 -7 35 -5 10 -5 17 1 17 5 0 7 10 5 23 -3 12
-6 27 -6 34 -1 7 -8 15 -17 19 -16 8 -160 21 -165 16z m64 -73 c0 -4 -15 -6
-34 -6 -19 1 -33 4 -31 7 5 8 65 7 65 -1z m30 1 c0 -5 -5 -10 -11 -10 -5 0 -7
5 -4 10 3 6 8 10 11 10 2 0 4 -4 4 -10z"/>
</g>
</svg>
